<mxfile host="app.diagrams.net" modified="2023-10-03T00:38:57.493Z" agent="Mozilla/5.0 (Macintosh; Intel Mac OS X 10_15_7) AppleWebKit/537.36 (KHTML, like Gecko) Chrome/117.0.0.0 Safari/537.36" version="22.0.1" etag="lwwleCaR2_dinFgPDCHY" type="github">
  <diagram name="Page-1" id="hiUvV34Z-eL8GHl0ER7X">
    <mxGraphModel>
      <root>
        <mxCell id="0" />
        <mxCell id="1" parent="0" />
      </root>
    </mxGraphModel>
  </diagram>
</mxfile>
